<?xml version="1.0" encoding="iso-8859-1"?>
<!-- Generator: Adobe Illustrator 19.0.0, SVG Export Plug-In . SVG Version: 6.00 Build 0)  -->
<svg version="1.1" id="Capa_1" xmlns="http://www.w3.org/2000/svg" xmlns:xlink="http://www.w3.org/1999/xlink" x="0px" y="0px"
	 viewBox="0 0 512 512" style="enable-background:new 0 0 512 512;" xml:space="preserve">
<circle style="fill:#F1592F;" cx="256" cy="256" r="256"/>
<rect x="50.604" y="130.764" style="fill:#D2D2D4;" width="410.8" height="313.84"/>
<rect x="74.056" y="156.36" style="fill:#FDFEFF;" width="363.88" height="262.64"/>
<rect x="50.604" y="67.38" style="fill:#656D7A;" width="410.8" height="63.384"/>
<rect x="227.608" y="86.3" style="fill:#FDFEFF;" width="208.12" height="25.548"/>
<circle style="fill:#7EC359;" cx="86.236" cy="99.072" r="15.276"/>
<circle style="fill:#F5EA07;" cx="129.24" cy="99.072" r="15.276"/>
<g>
	<circle style="fill:#70B1E1;" cx="172.24" cy="99.072" r="15.276"/>
	<rect x="97" y="178.24" style="fill:#70B1E1;" width="194" height="136.56"/>
</g>
<circle style="fill:#FDFEFF;" cx="193.96" cy="246.52" r="39.216"/>
<polygon style="fill:#F1592F;" points="217.136,246.516 181.584,272.54 181.584,220.488 "/>
<g>
	<rect x="97" y="335.94" style="fill:#D2D2D4;" width="86.444" height="62.776"/>
	<rect x="210.984" y="335.94" style="fill:#D2D2D4;" width="86.444" height="62.776"/>
	<rect x="325" y="335.94" style="fill:#D2D2D4;" width="86.444" height="62.776"/>
	<rect x="325" y="257.08" style="fill:#D2D2D4;" width="86.444" height="62.776"/>
	<rect x="325" y="178.24" style="fill:#D2D2D4;" width="86.444" height="62.776"/>
</g>
<g>
</g>
<g>
</g>
<g>
</g>
<g>
</g>
<g>
</g>
<g>
</g>
<g>
</g>
<g>
</g>
<g>
</g>
<g>
</g>
<g>
</g>
<g>
</g>
<g>
</g>
<g>
</g>
<g>
</g>
</svg>
