<?xml version="1.0" encoding="iso-8859-1"?>
<!-- Generator: Adobe Illustrator 19.0.0, SVG Export Plug-In . SVG Version: 6.00 Build 0)  -->
<svg version="1.1" id="Capa_1" xmlns="http://www.w3.org/2000/svg" xmlns:xlink="http://www.w3.org/1999/xlink" x="0px" y="0px"
	 viewBox="0 0 511.989 511.989" style="enable-background:new 0 0 511.989 511.989;" xml:space="preserve">
<polygon style="fill:#4CAF50;" points="272.01,175.985 272.01,47.985 496.01,255.985 272.01,463.985 272.01,335.985 16.01,335.985 
	80.01,255.985 16.01,175.985 "/>
<path d="M272.01,479.985c-8.837,0-16-7.163-16-16v-112h-240c-8.837,0.005-16.004-7.154-16.009-15.991
	c-0.002-3.631,1.231-7.156,3.497-9.993l56.032-70.016L3.498,185.969c-5.514-6.905-4.386-16.973,2.519-22.487
	c2.838-2.266,6.362-3.499,9.993-3.497h240v-112c0.011-8.837,7.183-15.991,16.019-15.981c4.028,0.005,7.907,1.529,10.861,4.269
	l224,208c6.468,6.02,6.832,16.145,0.811,22.613c-0.261,0.28-0.531,0.551-0.811,0.811l-224,208
	C279.934,478.448,276.048,479.98,272.01,479.985z M49.322,319.985H272.01c8.837,0,16,7.163,16,16v91.328l184.48-171.328
	L288.01,84.657v91.328c0,8.837-7.163,16-16,16H49.322l43.2,54.016c4.663,5.839,4.663,14.129,0,19.968L49.322,319.985z"/>
<g>
</g>
<g>
</g>
<g>
</g>
<g>
</g>
<g>
</g>
<g>
</g>
<g>
</g>
<g>
</g>
<g>
</g>
<g>
</g>
<g>
</g>
<g>
</g>
<g>
</g>
<g>
</g>
<g>
</g>
</svg>
