<?xml version="1.0" encoding="iso-8859-1"?>
<!-- Generator: Adobe Illustrator 19.0.0, SVG Export Plug-In . SVG Version: 6.00 Build 0)  -->
<svg version="1.1" id="Layer_1" xmlns="http://www.w3.org/2000/svg" xmlns:xlink="http://www.w3.org/1999/xlink" x="0px" y="0px"
	 viewBox="0 0 512.001 512.001" style="enable-background:new 0 0 512.001 512.001;" xml:space="preserve">
<path style="fill:#5C5F66;" d="M219.729,294.957v33.391c0,9.238-7.345,16.696-16.584,16.696s-16.696-7.457-16.696-16.696v-33.391
	c0-9.238-7.456-16.696-16.696-16.696s-16.807,7.457-16.807,16.696v200.348c0,9.238-7.345,16.696-16.584,16.696
	s-16.696-7.457-16.696-16.696V297.071c0-26.157,19.144-49.53,45.191-51.979c1.668-0.11,3.338-0.223,4.896-0.223
	C197.468,244.981,219.729,267.242,219.729,294.957z"/>
<path style="fill:#53565C;" d="M219.729,294.957v33.391c0,9.238-7.345,16.696-16.584,16.696s-16.696-7.457-16.696-16.696v-33.391
	c0-9.238-7.456-16.696-16.696-16.696V244.87C197.468,244.981,219.729,267.242,219.729,294.957z"/>
<g>
	<path style="fill:#F9BC35;" d="M253.205,100.174c-27.619,0-50.087-22.468-50.087-50.087S225.586,0,253.205,0
		s50.087,22.468,50.087,50.087S280.824,100.174,253.205,100.174z"/>
	<path style="fill:#F9BC35;" d="M392.335,256v222.609c0,18.365-15.026,33.391-33.391,33.391s-33.391-15.026-33.391-33.391V256
		c0-15.805-2.783-31.388-8.459-46.414l-11.911-32.167l-17.919,29.273c-3.339,5.343-67.117,68.341-71.681,72.904
		c-13.023,13.023-34.169,13.023-47.193,0c-13.024-13.023-13.023-34.282,0-47.193l62.887-62.998
		c30.163-60.216,33.391-80.362,60.883-80.362c7.345,0,14.247,2.337,20.035,6.678c18.587,13.913,34.282,30.72,46.748,49.642
		C380.425,177.864,392.335,216.376,392.335,256z"/>
</g>
<path style="fill:#F39E31;" d="M392.335,256v222.609c0,18.365-15.026,33.391-33.391,33.391V145.363
	C380.425,177.864,392.335,216.376,392.335,256z"/>
<g>
</g>
<g>
</g>
<g>
</g>
<g>
</g>
<g>
</g>
<g>
</g>
<g>
</g>
<g>
</g>
<g>
</g>
<g>
</g>
<g>
</g>
<g>
</g>
<g>
</g>
<g>
</g>
<g>
</g>
</svg>
